<mxfile host="app.diagrams.net" modified="2024-06-28T15:23:10.877Z" agent="Mozilla/5.0 (X11; Linux x86_64) AppleWebKit/537.36 (KHTML, like Gecko) Chrome/126.0.0.0 Safari/537.36" etag="iAONMGSEFP099cQnXf8B" version="24.6.4" type="github">
  <diagram name="Page-1" id="HEXjeIwIEezqWGD8xMji">
    <mxGraphModel dx="1434" dy="1947" grid="1" gridSize="10" guides="1" tooltips="1" connect="1" arrows="1" fold="1" page="1" pageScale="1" pageWidth="850" pageHeight="1100" math="0" shadow="0">
      <root>
        <mxCell id="0" />
        <mxCell id="1" parent="0" />
        <mxCell id="nfc6OqLTcZdqKSwCtkZa-12" value="" style="edgeStyle=orthogonalEdgeStyle;rounded=0;orthogonalLoop=1;jettySize=auto;html=1;" edge="1" parent="1" source="nfc6OqLTcZdqKSwCtkZa-10" target="nfc6OqLTcZdqKSwCtkZa-11">
          <mxGeometry relative="1" as="geometry" />
        </mxCell>
        <mxCell id="nfc6OqLTcZdqKSwCtkZa-10" value="Start" style="ellipse;whiteSpace=wrap;html=1;" vertex="1" parent="1">
          <mxGeometry x="320" y="-40" width="120" height="80" as="geometry" />
        </mxCell>
        <mxCell id="nfc6OqLTcZdqKSwCtkZa-14" value="" style="edgeStyle=orthogonalEdgeStyle;rounded=0;orthogonalLoop=1;jettySize=auto;html=1;" edge="1" parent="1" source="nfc6OqLTcZdqKSwCtkZa-11" target="nfc6OqLTcZdqKSwCtkZa-13">
          <mxGeometry relative="1" as="geometry" />
        </mxCell>
        <mxCell id="nfc6OqLTcZdqKSwCtkZa-15" value="" style="edgeStyle=orthogonalEdgeStyle;rounded=0;orthogonalLoop=1;jettySize=auto;html=1;" edge="1" parent="1" source="nfc6OqLTcZdqKSwCtkZa-11" target="nfc6OqLTcZdqKSwCtkZa-13">
          <mxGeometry relative="1" as="geometry" />
        </mxCell>
        <mxCell id="nfc6OqLTcZdqKSwCtkZa-16" value="" style="edgeStyle=orthogonalEdgeStyle;rounded=0;orthogonalLoop=1;jettySize=auto;html=1;" edge="1" parent="1" source="nfc6OqLTcZdqKSwCtkZa-11" target="nfc6OqLTcZdqKSwCtkZa-13">
          <mxGeometry relative="1" as="geometry" />
        </mxCell>
        <mxCell id="nfc6OqLTcZdqKSwCtkZa-11" value="Sensor Ready" style="whiteSpace=wrap;html=1;" vertex="1" parent="1">
          <mxGeometry x="320" y="130" width="120" height="60" as="geometry" />
        </mxCell>
        <mxCell id="nfc6OqLTcZdqKSwCtkZa-23" value="" style="edgeStyle=orthogonalEdgeStyle;rounded=0;orthogonalLoop=1;jettySize=auto;html=1;" edge="1" parent="1" source="nfc6OqLTcZdqKSwCtkZa-13" target="nfc6OqLTcZdqKSwCtkZa-22">
          <mxGeometry relative="1" as="geometry" />
        </mxCell>
        <mxCell id="nfc6OqLTcZdqKSwCtkZa-30" value="YES" style="edgeLabel;html=1;align=center;verticalAlign=middle;resizable=0;points=[];" vertex="1" connectable="0" parent="nfc6OqLTcZdqKSwCtkZa-23">
          <mxGeometry x="-0.25" y="-1" relative="1" as="geometry">
            <mxPoint as="offset" />
          </mxGeometry>
        </mxCell>
        <mxCell id="nfc6OqLTcZdqKSwCtkZa-37" value="" style="edgeStyle=orthogonalEdgeStyle;rounded=0;orthogonalLoop=1;jettySize=auto;html=1;entryX=0;entryY=0.5;entryDx=0;entryDy=0;" edge="1" parent="1" source="nfc6OqLTcZdqKSwCtkZa-13" target="nfc6OqLTcZdqKSwCtkZa-10">
          <mxGeometry relative="1" as="geometry">
            <mxPoint x="145" y="299" as="targetPoint" />
            <Array as="points">
              <mxPoint x="200" y="299" />
              <mxPoint x="200" />
            </Array>
          </mxGeometry>
        </mxCell>
        <mxCell id="nfc6OqLTcZdqKSwCtkZa-38" value="NO" style="edgeLabel;html=1;align=center;verticalAlign=middle;resizable=0;points=[];" vertex="1" connectable="0" parent="nfc6OqLTcZdqKSwCtkZa-37">
          <mxGeometry x="-0.8345" y="1" relative="1" as="geometry">
            <mxPoint as="offset" />
          </mxGeometry>
        </mxCell>
        <mxCell id="nfc6OqLTcZdqKSwCtkZa-13" value="Gas Concentration &amp;gt;= 600ppm" style="rhombus;whiteSpace=wrap;html=1;" vertex="1" parent="1">
          <mxGeometry x="282.5" y="220" width="195" height="158" as="geometry" />
        </mxCell>
        <mxCell id="nfc6OqLTcZdqKSwCtkZa-25" value="" style="edgeStyle=orthogonalEdgeStyle;rounded=0;orthogonalLoop=1;jettySize=auto;html=1;" edge="1" parent="1" source="nfc6OqLTcZdqKSwCtkZa-22" target="nfc6OqLTcZdqKSwCtkZa-24">
          <mxGeometry relative="1" as="geometry" />
        </mxCell>
        <mxCell id="nfc6OqLTcZdqKSwCtkZa-22" value="Arduino" style="whiteSpace=wrap;html=1;" vertex="1" parent="1">
          <mxGeometry x="320" y="440" width="120" height="60" as="geometry" />
        </mxCell>
        <mxCell id="nfc6OqLTcZdqKSwCtkZa-27" value="" style="edgeStyle=orthogonalEdgeStyle;rounded=0;orthogonalLoop=1;jettySize=auto;html=1;" edge="1" parent="1" source="nfc6OqLTcZdqKSwCtkZa-24" target="nfc6OqLTcZdqKSwCtkZa-26">
          <mxGeometry relative="1" as="geometry" />
        </mxCell>
        <mxCell id="nfc6OqLTcZdqKSwCtkZa-24" value="Wifi" style="whiteSpace=wrap;html=1;" vertex="1" parent="1">
          <mxGeometry x="320" y="534" width="120" height="60" as="geometry" />
        </mxCell>
        <mxCell id="nfc6OqLTcZdqKSwCtkZa-29" value="" style="edgeStyle=orthogonalEdgeStyle;rounded=0;orthogonalLoop=1;jettySize=auto;html=1;" edge="1" parent="1" source="nfc6OqLTcZdqKSwCtkZa-26" target="nfc6OqLTcZdqKSwCtkZa-28">
          <mxGeometry relative="1" as="geometry" />
        </mxCell>
        <mxCell id="nfc6OqLTcZdqKSwCtkZa-26" value="Message Send:&amp;nbsp;&lt;div&gt;Peringatan!! Konsentrasi Gas Tinggi!&lt;/div&gt;" style="whiteSpace=wrap;html=1;" vertex="1" parent="1">
          <mxGeometry x="320" y="620" width="120" height="60" as="geometry" />
        </mxCell>
        <mxCell id="nfc6OqLTcZdqKSwCtkZa-35" value="" style="edgeStyle=orthogonalEdgeStyle;rounded=0;orthogonalLoop=1;jettySize=auto;html=1;exitX=0;exitY=0.5;exitDx=0;exitDy=0;entryX=0;entryY=0.5;entryDx=0;entryDy=0;" edge="1" parent="1" source="nfc6OqLTcZdqKSwCtkZa-28" target="nfc6OqLTcZdqKSwCtkZa-10">
          <mxGeometry relative="1" as="geometry">
            <mxPoint x="310" y="739.5" as="sourcePoint" />
            <mxPoint x="200" as="targetPoint" />
            <Array as="points">
              <mxPoint x="200" y="740" />
              <mxPoint x="200" />
            </Array>
          </mxGeometry>
        </mxCell>
        <mxCell id="nfc6OqLTcZdqKSwCtkZa-28" value="Reset The System" style="whiteSpace=wrap;html=1;" vertex="1" parent="1">
          <mxGeometry x="320" y="710" width="120" height="60" as="geometry" />
        </mxCell>
        <mxCell id="nfc6OqLTcZdqKSwCtkZa-31" value="" style="edgeStyle=orthogonalEdgeStyle;rounded=0;orthogonalLoop=1;jettySize=auto;html=1;exitX=0.5;exitY=1;exitDx=0;exitDy=0;entryX=0;entryY=0.5;entryDx=0;entryDy=0;" edge="1" parent="1" source="nfc6OqLTcZdqKSwCtkZa-13" target="nfc6OqLTcZdqKSwCtkZa-33">
          <mxGeometry relative="1" as="geometry">
            <mxPoint x="390" y="388" as="sourcePoint" />
            <mxPoint x="500" y="410" as="targetPoint" />
            <Array as="points">
              <mxPoint x="380" y="410" />
              <mxPoint x="500" y="410" />
            </Array>
          </mxGeometry>
        </mxCell>
        <mxCell id="nfc6OqLTcZdqKSwCtkZa-33" value="Play Piezo buzzer, Turn On Led" style="rounded=0;whiteSpace=wrap;html=1;" vertex="1" parent="1">
          <mxGeometry x="510" y="380" width="120" height="60" as="geometry" />
        </mxCell>
      </root>
    </mxGraphModel>
  </diagram>
</mxfile>
